<svg xmlns="http://www.w3.org/2000/svg" xmlns:xlink="http://www.w3.org/1999/xlink" width="229.417" height="59.096" viewBox="0 0 229.417 59.096">
  <defs>
    <clipPath id="clip-path">
      <path id="Path_2" data-name="Path 2" d="M269,290.617h41.551v59.1H269Zm0,0" transform="translate(-269 -290.617)"/>
    </clipPath>
    <clipPath id="clip-path-2">
      <path id="Path_7" data-name="Path 7" d="M245.387,310h53.564v52.952H245.387Zm0,0" transform="translate(-245.387 -310)"/>
    </clipPath>
  </defs>
  <g id="Ballapi_Logo" data-name="Ballapi Logo" transform="translate(-245.387 -290.617)">
    <g id="Group_1" data-name="Group 1" transform="translate(251.37 290.617)" clip-path="url(#clip-path)">
      <path id="Path_1" data-name="Path 1" d="M290.085,290.8a51.2,51.2,0,0,0-19.1,3.661l-1.8.7v35.67c0,2.313,1.032,4.151,2.35,6.121a34.752,34.752,0,0,0,5.024,5.822c3.93,3.7,8.453,7.063,13.379,7.063s9.449-3.359,13.377-7.063a34.813,34.813,0,0,0,5.024-5.822c1.317-1.971,2.348-3.806,2.348-6.121V295.147l-1.813-.7A52.828,52.828,0,0,0,290.085,290.8Zm-.019,5.622a46.335,46.335,0,0,1,14.972,2.66V330.83a9.978,9.978,0,0,1-1.393,2.971,29.823,29.823,0,0,1-4.2,4.852c-3.382,3.188-7.82,5.523-9.5,5.523s-6.119-2.335-9.5-5.523a29.814,29.814,0,0,1-4.2-4.852,9.966,9.966,0,0,1-1.393-2.971V299.066A44.893,44.893,0,0,1,290.067,296.417Zm0,0" transform="translate(-269.143 -290.75)" fill="#39003b"/>
    </g>
    <path id="Path_3" data-name="Path 3" d="M292.866,294.49a50.258,50.258,0,0,0-18.752,3.6l-1.2.47v35.026c0,1.942.923,3.7,2.189,5.6a33.974,33.974,0,0,0,4.887,5.66c3.837,3.619,8.346,6.808,12.731,6.808s8.894-3.19,12.731-6.808a33.983,33.983,0,0,0,4.887-5.66c1.267-1.893,2.19-3.654,2.19-5.6V298.554l-1.209-.465A51.927,51.927,0,0,0,292.866,294.49Zm-.013,3.749a47.6,47.6,0,0,1,15.91,2.936v32.413a8.892,8.892,0,0,1-1.553,3.5,30.71,30.71,0,0,1-4.339,5.013c-3.473,3.275-7.926,5.78-10.147,5.78s-6.674-2.507-10.147-5.78a30.6,30.6,0,0,1-4.339-5.013,8.912,8.912,0,0,1-1.553-3.5V301.167A46.092,46.092,0,0,1,292.853,298.239Zm0,0" transform="translate(-20.556 -2.891)" fill="#fff"/>
    <path id="Path_4" data-name="Path 4" d="M295.639,298.189a49.313,49.313,0,0,0-18.4,3.544l-.6.235v34.382a9.712,9.712,0,0,0,2.031,5.071,33.135,33.135,0,0,0,4.749,5.5c3.747,3.532,8.241,6.55,12.085,6.55s8.339-3.018,12.085-6.55a33.27,33.27,0,0,0,4.75-5.5,9.719,9.719,0,0,0,2.031-5.071V301.964l-.606-.233A50.92,50.92,0,0,0,295.639,298.189Zm-.006,1.875a48.806,48.806,0,0,1,16.85,3.211v33.076a8.9,8.9,0,0,1-1.712,4.021,31.532,31.532,0,0,1-4.476,5.174c-3.564,3.36-8.03,6.038-10.792,6.038s-7.229-2.677-10.793-6.038a31.552,31.552,0,0,1-4.476-5.174,8.9,8.9,0,0,1-1.712-4.021V303.271A47.2,47.2,0,0,1,295.633,300.064Zm0,0" transform="translate(-23.333 -5.653)" fill="#39003b"/>
    <g id="Group_2" data-name="Group 2" transform="translate(245.387 295.528)" clip-path="url(#clip-path-2)">
      <path id="Path_6" data-name="Path 6" d="M274.428,310.246a.527.527,0,0,0-.285.08.548.548,0,0,0-.2.252,1.433,1.433,0,0,0-.074.391c-.073,0-.114,0-.243,0a7.588,7.588,0,0,0-.944.049,1.454,1.454,0,0,1-.506.013,1.51,1.51,0,0,0-.631,0,.907.907,0,0,0-.468.357l-.03.038c.014-.008.019-.008-.073.009a.9.9,0,0,0-.379.141.861.861,0,0,0-.254.3s.02-.007-.038,0a.955.955,0,0,0-.539.2.827.827,0,0,0-.258.523c-.012.083-.012.078-.027.1a1.8,1.8,0,0,1-.182.223,2.279,2.279,0,0,0-.346.458.92.92,0,0,0-.1.276,1.551,1.551,0,0,0-.013.313c.005.229.015.151-.1.5-.066.2-.183.534-.253.728a2.056,2.056,0,0,0-.163.685.921.921,0,0,0,.074.427.7.7,0,0,0,.137.189,1.347,1.347,0,0,0-.145.484.565.565,0,0,0,.053.323.552.552,0,0,0,.428.269.478.478,0,0,0,.167-.033v0a.471.471,0,0,0,.232.2.409.409,0,0,0,.387-.034c.033-.018.049-.035.074-.05a.923.923,0,0,0,.306.328c.029.017.06.02.089.035a10.784,10.784,0,0,0-1.533.558,1.082,1.082,0,0,1-.395.128,3.752,3.752,0,0,0-.89.213.859.859,0,0,1-.408.062,2.022,2.022,0,0,0-1.37.51c-.158.146-.083.1-.439.231a5.8,5.8,0,0,0-1.409.711,15.171,15.171,0,0,1-1.876.951,16.826,16.826,0,0,1-1.826.754,15.516,15.516,0,0,0-2.424.947,8.587,8.587,0,0,0-.8.432,16,16,0,0,0-2.065,2.055c-1.2,1.28-2.01,2.135-2.566,2.689a6.51,6.51,0,0,1-.969.852c.111-.057,0,0-.114.016s-.28.043-.49.068c-.831.1-1.529.208-2.066.314a3.812,3.812,0,0,0-1.162.343,1.067,1.067,0,0,0-.233.188c-.079.074-.167.162-.252.252a1.766,1.766,0,0,1-.707.523c-.145.084-.281.164-.388.232-.053.033-.1.063-.137.09a.694.694,0,0,0-.058.045c-.022.018-.04-.005-.115.137a.5.5,0,0,0,.087.579.8.8,0,0,0,.275.2,1.3,1.3,0,0,0,.146.041.454.454,0,0,0,.168.3.572.572,0,0,0,.47.124.747.747,0,0,0,.32-.148,1.493,1.493,0,0,0,.133-.128l.008.012a.531.531,0,0,0,.184.138.741.741,0,0,0,.409.065.933.933,0,0,0,.4-.068.632.632,0,0,0,.25-.171c.074-.063.156-.141.237-.222a1.939,1.939,0,0,1,.234-.2.527.527,0,0,0,.171.161.585.585,0,0,0,.59-.036.489.489,0,0,0,.171-.125c.049-.043.1-.093.16-.146l.051-.05.5.036c.87.06,1.239.11,1.609-.082a7.094,7.094,0,0,0,.861-.581c.069-.052.138-.1.187-.132a.482.482,0,0,1,.044-.026.852.852,0,0,0,.291-.126,3.418,3.418,0,0,0,.4-.34c.493-.459,1.057-.951,1.482-1.293a7.725,7.725,0,0,1,1.593-1.059,6.36,6.36,0,0,0,1-.6,5.632,5.632,0,0,0,.944-.909c.071-.092,0-.046.207-.13s.643-.221,1.475-.479c.41-.128.819-.257.952-.3a.9.9,0,0,1,.155-.043c-.006,0-.019-.011.044.026a1.06,1.06,0,0,0,.5.163,3.454,3.454,0,0,0,.7-.1,11.019,11.019,0,0,1,2.482-.269,2.029,2.029,0,0,1,.385.036c.031.009.014-.005.085.073a4.8,4.8,0,0,1,.817,1.541,8.609,8.609,0,0,1,.3,1.3c0,.047.01.031.017.028s-.01,0-.023.026a1.186,1.186,0,0,0-.194.613,5.912,5.912,0,0,0,.146.985c.033.174.062.337.085.458.007.039.01.063.015.092-.033.06-.083.143-.138.228a4.1,4.1,0,0,0-.582,1.183l-.045.184a.414.414,0,0,0-.005.167l.1.544a4.816,4.816,0,0,1,.1,2.079c-.044.41-.069.878-.077,1.288a4.254,4.254,0,0,0,.044.969,7.509,7.509,0,0,0,1.515,2.42c.993,1.323,1.252,1.682,1.559,2.154.152.233.352.53.466.686a4.748,4.748,0,0,1,.7,1.226,3.979,3.979,0,0,1-.215,1.78c-.091.362-.2.747-.288,1.049-.045.149-.086.279-.118.372l-.019.05c-.045.022-.11.053-.2.088a7.486,7.486,0,0,0-1.93,1.106,3.676,3.676,0,0,0-.454.471,1.612,1.612,0,0,1-.134.152c-.031.031-.059.035.009.006a2.185,2.185,0,0,0-.9.8,4.1,4.1,0,0,1-1.59,1.285c-.167.085-.426.192-.46.2-.161.049-.057.038-.317.013a2.54,2.54,0,0,0-1.109.107,2.415,2.415,0,0,0-.837.508,1.07,1.07,0,0,0-.291.559,8.219,8.219,0,0,0-.028,1.063,5.805,5.805,0,0,1-.141,1.743,2.666,2.666,0,0,1-.362.844,5.616,5.616,0,0,0-.749,1.8,3.8,3.8,0,0,0,.014,1.431,1.931,1.931,0,0,0,1.086,1.562,1.332,1.332,0,0,0,1.193-.232,2.887,2.887,0,0,0,.866-1.111c.125-.258.308-.753.545-1.431s.519-1.521.8-2.4c.089-.279.157-.482.2-.613.015-.043.025-.064.035-.09l.121-.064c.129-.065.3-.152.491-.24,2.119-1,4.054-1.975,5.076-2.561a3.82,3.82,0,0,0,.039,1.052s.03.194.043.33a1.977,1.977,0,0,0,.124.557,11.8,11.8,0,0,1,.1,2.248c0,.618,0,.955-.006,1.143a.7.7,0,0,1-.026.245,1.56,1.56,0,0,0-.045.593,3.962,3.962,0,0,1-.3,1.791,6.5,6.5,0,0,0-.208.867,2.1,2.1,0,0,0,.022.641,1.579,1.579,0,0,0,.12.46.761.761,0,0,0,.359.335,4.47,4.47,0,0,0,.6.169c.261.061.577.127.912.192.655.128,1.365.245,1.863.3l.039.006a.4.4,0,0,1,.046,0v0h.031a2.662,2.662,0,0,0,1.154-.118,1.1,1.1,0,0,0,.754-1.018.891.891,0,0,0-.19-.5,4.887,4.887,0,0,0-.484-.507,3.6,3.6,0,0,1-.446-.475,13.85,13.85,0,0,1-.68-1.884,4.633,4.633,0,0,1-.007-1.079,38.847,38.847,0,0,1,.217-3.93,18.805,18.805,0,0,1,.312-2.108,11.754,11.754,0,0,0,.267-1.467,10.19,10.19,0,0,0,.015-1.94l-.025-.214.284-.641c.183-.412.42-.959.532-1.232a1.716,1.716,0,0,1,.249-.5,1.305,1.305,0,0,0,.253-.448c.068-.207.144-.509.3-1.105a27.332,27.332,0,0,0,.819-3.838c.03-.511.142-1.442.331-2.714a19.787,19.787,0,0,0,.17-2c.016-.354.034-.746.04-.843a3.2,3.2,0,0,0-.214-1.223c-.073-.217-.1-.4-.1-.36,0-.09.032-.61.073-1.135s.093-1.1.129-1.4a6.1,6.1,0,0,1,.271-1.243c.368-1.391.708-2.5,1.016-3.329a5.814,5.814,0,0,1,.788-1.575c.053-.059.059-.073.252-.1a7.32,7.32,0,0,1,1.109-.03c1.118.024,2.5.131,4.407.342a10.723,10.723,0,0,1,1.927.286,2.432,2.432,0,0,1,.7.759A8.658,8.658,0,0,0,290.5,327.2a5.206,5.206,0,0,1,.955,1.008,12.123,12.123,0,0,1,1.387,2.533.666.666,0,0,1,.07.256c.008.1.006.3-.008.655a2.117,2.117,0,0,0,.065.624,2.177,2.177,0,0,0,.427.9c.093.126.245.354.3.456.082.143.168.287.244.392a.591.591,0,0,0,.226.211.582.582,0,0,0,.312.063.745.745,0,0,0,.449-.163.821.821,0,0,0,.224-.312c.224.22.477.478.809.857a2.8,2.8,0,0,0,.695.657.776.776,0,0,0,.425.1.906.906,0,0,0,.358-.116.751.751,0,0,1,.08-.037c.023-.009.066,0-.04,0a.609.609,0,0,0,.383-.128.673.673,0,0,0,.266-.284.558.558,0,0,0,.073-.253.742.742,0,0,0,.217-.117.565.565,0,0,0,.191-.417.836.836,0,0,0-.126-.43l-.023-.041h0a.654.654,0,0,0,.261-.156.588.588,0,0,0,.219-.509.82.82,0,0,0-.125-.427.714.714,0,0,0-.117-.148c-.044-.05-.1-.111-.163-.181-.131-.139-.3-.315-.476-.5s-.341-.353-.472-.5-.249-.289-.228-.258a3.966,3.966,0,0,0-1.182-.944c-.129-.085-.261-.175-.367-.253s-.2-.154-.192-.145-.137-.17-.271-.382-.289-.486-.436-.767c-1.63-3.135-3.06-5.3-4.223-6.163A17.131,17.131,0,0,0,284.656,320c-.21-.046-1.379-.362-2.493-.68s-2.211-.628-2.456-.695c-.111-.029-.22-.061-.3-.087l-.046-.014c0-.01,0,0-.009-.02a1.239,1.239,0,0,0-.309-.5,1.482,1.482,0,0,0-.535-.282,1.253,1.253,0,0,0-.138-.048.825.825,0,0,0-.361-.35,1.289,1.289,0,0,0-.495-.1,2.755,2.755,0,0,0-.4.019,1.356,1.356,0,0,1,.044-.409,3.294,3.294,0,0,0,.032-1.308c-.016-.078-.007-.066-.015-.027s-.016.033.036-.04a.856.856,0,0,0,.172-.412.943.943,0,0,0-.077-.436c-.073-.2-.067-.064,0-.308a1.4,1.4,0,0,0-.008-.863,3.542,3.542,0,0,0-.56-.865c-.076-.1-.078-.108-.078-.1,0-.009,0,0,.006-.016a.747.747,0,0,0,.053-.382.442.442,0,0,0-.138-.323.4.4,0,0,0-.291-.135.055.055,0,0,1,0-.018.612.612,0,0,0-.072-.371.515.515,0,0,0-.389-.3,2.4,2.4,0,0,0-.435-.116c-.207-.039-.3-.06-.31-.064s0,0-.008-.013a3.339,3.339,0,0,0-.263-.3A.505.505,0,0,0,274.428,310.246Zm.183,1.137a.672.672,0,0,0,.171.106,2.341,2.341,0,0,0,.476.11,1.663,1.663,0,0,1,.216.055.162.162,0,0,1,0,.027,1.127,1.127,0,0,0-.055.281.544.544,0,0,0,.022.191.481.481,0,0,0,.194.257c.144.09.19.069.228.065a.553.553,0,0,0,.011.179,1.052,1.052,0,0,0,.239.4,4.963,4.963,0,0,1,.439.652.607.607,0,0,1-.016.368,1.305,1.305,0,0,0,.027.8c.033.087.026.1.029.073s.019-.043-.023.014a.871.871,0,0,0-.17.335.844.844,0,0,0,.015.378,3.056,3.056,0,0,1-.035.972,2.441,2.441,0,0,0-.064.68c0,.071.01.14.017.2,0,.029.008.056.012.085a.334.334,0,0,0,.033.12.62.62,0,0,0,.4.311,1.051,1.051,0,0,0,.354-.018,2.716,2.716,0,0,1,.352-.015.667.667,0,0,1,.186.028.741.741,0,0,0,.23.281,1.281,1.281,0,0,0,.351.15.831.831,0,0,1,.256.116c.017.015.042.046.1.2a.7.7,0,0,0,.333.431.588.588,0,0,0,.115.046l.124.041c.094.028.209.061.328.094.216.059,1.328.373,2.444.692s2.218.621,2.541.694a16.966,16.966,0,0,1,5.73,2.138c.869.644,2.379,2.793,3.987,5.886.155.3.32.587.467.823a2.512,2.512,0,0,0,.4.544,2.815,2.815,0,0,0,.272.212c.116.082.254.178.393.27.76.5.876.6.956.721a2.945,2.945,0,0,0,.3.354c.14.15.314.333.491.516.031.032.051.055.082.085a.474.474,0,0,0-.329.177.342.342,0,0,0-.054.4.373.373,0,0,0,.051.125c.017.035.039.074.063.12.048.091.112.2.179.325.12.21.2.354.249.463a.56.56,0,0,0-.2.15.62.62,0,0,0-.129.386.928.928,0,0,0-.157.034,1.491,1.491,0,0,0-.184.082c-.026.015-.016.01-.022.012a3.294,3.294,0,0,1-.468-.47c-.411-.469-.76-.839-1.033-1.091a2.628,2.628,0,0,0-.367-.3.68.68,0,0,0-.206-.1.469.469,0,0,0-.451.11c-.157.157-.113.2-.117.237a.416.416,0,0,0,0,.068c0,.035,0,.059,0,.087s.008.053.01.079a.023.023,0,0,0-.005-.007,5.7,5.7,0,0,0-.358-.542,1.087,1.087,0,0,1-.289-.606,1.066,1.066,0,0,1-.042-.4,6.058,6.058,0,0,0,.005-.755,1.65,1.65,0,0,0-.126-.491,12.727,12.727,0,0,0-1.489-2.715,6.21,6.21,0,0,0-1.086-1.144,7.594,7.594,0,0,1-1.512-1.727,2.851,2.851,0,0,0-1.011-1.021,8.067,8.067,0,0,0-2.18-.357c-1.922-.213-3.322-.323-4.478-.346a7.411,7.411,0,0,0-1.254.04,1.241,1.241,0,0,0-.725.361,5.829,5.829,0,0,0-.944,1.833q-.486,1.3-1.041,3.407a7.226,7.226,0,0,0-.293,1.355c-.037.325-.088.894-.131,1.426s-.075.991-.075,1.2a1.785,1.785,0,0,0,.142.618,2.583,2.583,0,0,1,.172.913c-.009.129-.026.5-.042.862-.032.74-.09,1.418-.162,1.911-.19,1.283-.3,2.216-.337,2.786a30.865,30.865,0,0,1-.8,3.685c-.152.595-.232.9-.281,1.049s-.02.088-.087.163a2.4,2.4,0,0,0-.393.732c-.106.256-.344.809-.524,1.212l-.33.742a.4.4,0,0,0-.032.21l.037.324a10.84,10.84,0,0,1-.014,1.753,11.153,11.153,0,0,1-.249,1.364,18.733,18.733,0,0,0-.331,2.211,39.453,39.453,0,0,0-.223,4,5.352,5.352,0,0,0,.023,1.266,10.475,10.475,0,0,0,.758,2.1,2.88,2.88,0,0,0,.6.679,4.967,4.967,0,0,1,.4.415c.016.02.014.017.019.02a.425.425,0,0,1-.224.251,2.195,2.195,0,0,1-.857.07c-.455-.051-1.186-.172-1.838-.3-.327-.064-.634-.129-.882-.187-.217-.05-.361-.093-.429-.116a1.256,1.256,0,0,1-.041-.191,1.146,1.146,0,0,1-.018-.4,6.1,6.1,0,0,1,.184-.752,5.031,5.031,0,0,0,.324-2.075c-.018-.223-.022-.178.015-.3a1.755,1.755,0,0,0,.06-.451c.007-.216.007-.552.006-1.17a7.949,7.949,0,0,0-.163-2.551,1.164,1.164,0,0,1-.068-.328,3.587,3.587,0,0,0-.059-.43,3.445,3.445,0,0,1-.02-.877c.009-.129.017-.253.019-.354,0-.051,0-.1,0-.135a.315.315,0,0,0-.016-.156.507.507,0,0,0-.219-.3.493.493,0,0,0-.351-.057,1.12,1.12,0,0,0-.413.18c-.889.525-3.02,1.605-5.25,2.653-.192.091-.373.179-.514.251-.071.035-.13.067-.179.1-.025.014-.047.026-.068.04a.335.335,0,0,0-.1.073.4.4,0,0,0-.127.2c-.025.054-.048.116-.076.192-.055.153-.125.362-.216.645-.276.868-.555,1.7-.79,2.374s-.435,1.19-.51,1.347a2.155,2.155,0,0,1-.614.806.487.487,0,0,1-.464.119,1.448,1.448,0,0,1-.554-.974,4.033,4.033,0,0,1-.009-1.095,4.9,4.9,0,0,1,.645-1.536,3.6,3.6,0,0,0,.456-1.069,6.8,6.8,0,0,0,.166-1.944,9.226,9.226,0,0,1,.021-.942c.016-.113-.03-.018.051-.1a3.354,3.354,0,0,1,.554-.33,2.08,2.08,0,0,1,.751-.061,1.5,1.5,0,0,0,.634-.045,4.1,4.1,0,0,0,.59-.255,4.968,4.968,0,0,0,1.883-1.539,1.6,1.6,0,0,1,.551-.522.672.672,0,0,0,.245-.175,2.248,2.248,0,0,0,.2-.225,3.748,3.748,0,0,1,.343-.357,6.978,6.978,0,0,1,1.712-.975,2.965,2.965,0,0,0,.288-.13.595.595,0,0,0,.336-.351c.017-.043.034-.09.052-.145.038-.109.08-.245.128-.4.094-.315.2-.708.3-1.084a4.109,4.109,0,0,0,.2-2.236,5.454,5.454,0,0,0-.818-1.444c-.092-.127-.3-.43-.441-.651-.319-.489-.6-.873-1.59-2.2a8.014,8.014,0,0,1-1.374-2.11,7.26,7.26,0,0,1-.025-.776c.007-.387.034-.84.073-1.219a5.881,5.881,0,0,0-.113-2.308l-.083-.461.025-.1a4.3,4.3,0,0,1,.474-.933c.064-.1.122-.193.166-.272.023-.041.042-.076.059-.113.008-.019.017-.036.027-.062a.265.265,0,0,0,.03-.158.226.226,0,0,0-.006-.078c0-.016,0-.033-.008-.055-.007-.043-.016-.1-.028-.159-.022-.128-.052-.293-.086-.47a6.911,6.911,0,0,1-.132-.837c0-.1-.011-.047.074-.185a1.054,1.054,0,0,0,.123-.551,8.056,8.056,0,0,0-.333-1.483,5.31,5.31,0,0,0-.984-1.829,1.06,1.06,0,0,0-.438-.3,2.173,2.173,0,0,0-.6-.074,11.715,11.715,0,0,0-2.666.284c-.335.064-.5.089-.536.089s.016.016-.109-.055a.922.922,0,0,0-.424-.132,1.156,1.156,0,0,0-.438.086c-.088.031-.524.168-.929.295-.833.258-1.26.391-1.534.5a1.308,1.308,0,0,0-.547.387,7.542,7.542,0,0,1-.786.752,5.118,5.118,0,0,1-.887.527,8.8,8.8,0,0,0-1.737,1.153c-.446.36-1.019.858-1.526,1.329a3.026,3.026,0,0,1-.31.265c-.053.036-.031.012.02.012a.3.3,0,0,0-.166.033.559.559,0,0,0-.063.03c-.036.019-.068.039-.1.061-.072.046-.153.1-.238.166a7.908,7.908,0,0,1-.749.511,8.494,8.494,0,0,1-1.179-.008l-.681-.047a.4.4,0,0,0-.309.112l-.122.118a.568.568,0,0,0-.531-.162,1.938,1.938,0,0,0-.71.443.322.322,0,0,0-.012-.147.476.476,0,0,0-.214-.231.447.447,0,0,0-.291-.053.9.9,0,0,0-.3.074c.046-.045.087-.074.143-.135.072-.077.152-.155.215-.216s.148-.116.088-.08a5.123,5.123,0,0,1,.91-.247c.508-.1,1.192-.2,2.01-.305.217-.027.392-.05.526-.074a.807.807,0,0,0,.349-.094,5.409,5.409,0,0,0,1.167-1c.572-.569,1.389-1.427,2.588-2.71A18.873,18.873,0,0,1,257.2,324.2c.061-.041.42-.24.706-.379a14.28,14.28,0,0,1,2.315-.9,17.669,17.669,0,0,0,1.917-.79,12.723,12.723,0,0,0,2.027-1.041,5.76,5.76,0,0,1,1.2-.6,1.862,1.862,0,0,0,.7-.392,1.007,1.007,0,0,1,.857-.3,1.931,1.931,0,0,0,.668-.116,2.942,2.942,0,0,1,.7-.164,2.074,2.074,0,0,0,.628-.195,10.308,10.308,0,0,1,1.841-.643,1.192,1.192,0,0,0,.533-.2.581.581,0,0,0,.2-.417.5.5,0,0,0-.084-.259,1.151,1.151,0,0,0-.185-.26.657.657,0,0,0-.27-.176.854.854,0,0,0-.283-.028.509.509,0,0,1-.234-.038c-.022-.014-.034-.019-.067-.1a.931.931,0,0,0-.115-.226.554.554,0,0,0-.295-.21.3.3,0,0,0-.059,0,.442.442,0,0,0-.02-.133.49.49,0,0,0-.177-.24.48.48,0,0,0-.264-.08c-.033,0-.04.013-.065.016a.49.49,0,0,0-.261-.369s0,.012,0-.047a1.03,1.03,0,0,1,.113-.423c.077-.208.192-.539.263-.754a1.971,1.971,0,0,0,.139-.769,1.345,1.345,0,0,1,0-.16s-.01.018.018-.032c-.015.027.13-.182.234-.3a2.01,2.01,0,0,0,.283-.362,1.145,1.145,0,0,0,.125-.39c0-.02,0-.015,0-.024-.008.007-.008,0,.1-.013a.865.865,0,0,0,.372-.106.747.747,0,0,0,.265-.3c.033-.06.033-.048.013-.034s-.019.005.058-.009a.955.955,0,0,0,.348-.1.794.794,0,0,0,.258-.251c.078-.1.049-.067.036-.064s.089,0,.322.024a2.554,2.554,0,0,0,.707-.013,7.336,7.336,0,0,1,.84-.042c.225,0,.363,0,.473-.008a.691.691,0,0,0,.165-.025.473.473,0,0,0,.247-.154.312.312,0,0,0,.087-.162A.121.121,0,0,0,274.611,311.383ZM269.3,317.31c-.011.02-.018.025-.024.027l0-.006A.174.174,0,0,1,269.3,317.31Zm-16.2,13.561-.006,0c-.013.006-.022.025-.134.025A.6.6,0,0,0,253.1,330.871Zm-6.44.58c-.016.028-.033.054-.049.084s-.026.029-.04.052a.539.539,0,0,0-.047-.052l.009,0C246.6,331.495,246.612,331.479,246.662,331.451Zm.065.471a.234.234,0,0,1,.011.106C246.738,331.992,246.73,331.958,246.727,331.922Zm50.761,2.536c-.039,0-.038.009-.063.013,0,0,.007-.011,0-.009S297.383,334.458,297.488,334.458Zm0,0" transform="translate(-245.384 -310.184)" fill="#fff"/>
    </g>
    <path id="Path_8" data-name="Path 8" d="M275.768,363.66a24.416,24.416,0,0,1-3.311-.644c-.132-.053-.175-.141-.23-.486a2.484,2.484,0,0,1,.175-1.332,4.483,4.483,0,0,0,.311-1.933.986.986,0,0,1,.029-.445,6.355,6.355,0,0,0,.048-1.5,8.926,8.926,0,0,0-.134-2.4,1.635,1.635,0,0,1-.1-.442c-.015-.148-.037-.32-.051-.381a3.672,3.672,0,0,1-.028-1,3.773,3.773,0,0,0,.016-.516c-.026-.1-.124-.084-.385.071-.922.545-3.047,1.62-5.284,2.671a7.73,7.73,0,0,0-.747.381,4.733,4.733,0,0,0-.317.868c-.554,1.742-1.12,3.36-1.321,3.774-.418.867-1.033,1.312-1.569,1.135a1.644,1.644,0,0,1-.82-1.267,3.8,3.8,0,0,1-.011-1.263,5.253,5.253,0,0,1,.7-1.669,3.1,3.1,0,0,0,.409-.956,6.24,6.24,0,0,0,.154-1.844c-.005-1.083,0-1.145.2-1.329a2.54,2.54,0,0,1,.7-.419,2.249,2.249,0,0,1,.93-.083.889.889,0,0,0,.475-.03,4.207,4.207,0,0,0,.524-.23,4.53,4.53,0,0,0,1.736-1.412,1.889,1.889,0,0,1,.726-.663,1.012,1.012,0,0,0,.284-.28,3.7,3.7,0,0,1,.4-.415,7.207,7.207,0,0,1,1.821-1.04,1.179,1.179,0,0,0,.369-.2,12.948,12.948,0,0,0,.491-1.641,3.974,3.974,0,0,0,.2-2.009,5.051,5.051,0,0,0-.761-1.334c-.1-.141-.306-.442-.453-.669-.313-.48-.582-.852-1.575-2.176a7.614,7.614,0,0,1-1.445-2.265,10.71,10.71,0,0,1,.042-2.126,5.333,5.333,0,0,0-.109-2.193l-.1-.544.046-.184a4.133,4.133,0,0,1,.528-1.058,2.134,2.134,0,0,0,.217-.386c0-.029-.054-.336-.121-.687-.185-.976-.185-1.019-.006-1.311a.357.357,0,0,0,.065-.3,8.133,8.133,0,0,0-.315-1.393,5.056,5.056,0,0,0-.9-1.685c-.176-.2-.272-.226-.756-.243a11.431,11.431,0,0,0-2.574.277c-.671.131-.673.131-.923-.013a.518.518,0,0,0-.532-.015c-.109.038-.532.172-.939.3-1.666.518-1.721.539-1.882.749a6.284,6.284,0,0,1-.864.829,5.728,5.728,0,0,1-.946.564,8.192,8.192,0,0,0-1.665,1.1c-.437.351-1,.846-1.5,1.311-.315.293-.45.385-.564.385a1.488,1.488,0,0,0-.33.21,7.165,7.165,0,0,1-.806.545,3.382,3.382,0,0,1-1.393.039l-.681-.047-.181.174a1.988,1.988,0,0,1-.235.2c-.2.1-.3.047-.27-.142.02-.136-.035-.214-.13-.185a1.762,1.762,0,0,0-.7.477,2.022,2.022,0,0,1-.356.3.891.891,0,0,1-.483.007c-.038-.018-.068-.052-.068-.078a1.552,1.552,0,0,1,.2-.318c.233-.308.245-.37.075-.363a1.237,1.237,0,0,0-.5.191.918.918,0,0,0-.133.206c-.167.332-.461.548-.587.434a.2.2,0,0,1-.054-.125c0-.127-.046-.21-.128-.228-.236-.05-.31-.08-.371-.154s-.061-.091-.041-.128a4.121,4.121,0,0,1,.541-.341,2.268,2.268,0,0,0,.8-.6,3.08,3.08,0,0,1,.393-.368,12.417,12.417,0,0,1,3.074-.6,3.994,3.994,0,0,0,.74-.126,27.3,27.3,0,0,0,3.645-3.624,17.051,17.051,0,0,1,1.994-1.993c.117-.078.454-.26.75-.407a15.119,15.119,0,0,1,2.369-.925,17.669,17.669,0,0,0,1.872-.773,13.7,13.7,0,0,0,1.952-.995,5.715,5.715,0,0,1,1.3-.654,1.26,1.26,0,0,0,.571-.311,1.493,1.493,0,0,1,1.113-.4,1.4,1.4,0,0,0,.539-.089,3.361,3.361,0,0,1,.795-.189,1.587,1.587,0,0,0,.512-.16,10.725,10.725,0,0,1,1.909-.668c.443-.116.475-.14.393-.293A.993.993,0,0,0,272.1,319c-.065-.07-.088-.077-.258-.077-.375,0-.569-.116-.678-.4-.083-.224-.167-.247-.36-.1-.066.05-.147.1-.177.123-.094.051-.1-.034-.022-.28.116-.355.092-.428-.107-.34a1.508,1.508,0,0,0-.414.411c0,.012-.024.023-.053.023-.123,0-.1-.242.04-.526.12-.238.12-.29,0-.359-.149-.088-.191-.176-.186-.394a1.512,1.512,0,0,1,.138-.554c.073-.2.19-.534.258-.741a1.406,1.406,0,0,0,.119-.634.614.614,0,0,1,.066-.391,2.623,2.623,0,0,1,.29-.378c.238-.264.278-.335.308-.538.038-.259.133-.339.449-.38.217-.029.253-.049.334-.2a.4.4,0,0,1,.356-.248c.234-.042.237-.043.354-.2.179-.237.249-.256.728-.2a2.026,2.026,0,0,0,.607-.013,7.563,7.563,0,0,1,.891-.045c.446,0,.547-.008.576-.041a.819.819,0,0,0,.056-.249c.043-.378.066-.438.173-.438.06,0,.125.062.344.332.111.136.123.14.557.22a.976.976,0,0,1,.54.2.636.636,0,0,1-.014.391c-.047.157-.051.243-.013.268a.335.335,0,0,0,.16-.027.657.657,0,0,1,.222-.036c.079.007.089.019.1.1a.643.643,0,0,1-.035.214c-.069.206-.057.246.137.495a3.807,3.807,0,0,1,.5.759.985.985,0,0,1,0,.615.685.685,0,0,0,.015.553.4.4,0,0,1-.045.468.369.369,0,0,0-.089.39,3.124,3.124,0,0,1-.033,1.14,1.9,1.9,0,0,0-.057.574,1.621,1.621,0,0,0,.032.275c.028.071.1.081.322.048a2.37,2.37,0,0,1,.437-.02c.3.015.44.08.524.244.071.138.061.133.356.236.387.136.47.212.6.549.049.128.089.19.14.216a4.786,4.786,0,0,0,.489.149c.23.063,1.332.374,2.451.693s2.251.628,2.518.686a17.058,17.058,0,0,1,5.883,2.209c1.016.752,2.487,2.91,4.105,6.024a6.711,6.711,0,0,0,.789,1.259,7.119,7.119,0,0,0,.613.439c.764.506.942.643,1.069.832.061.091.4.457.748.813s.664.695.7.751a.454.454,0,0,1,.066.225.2.2,0,0,1-.085.2c-.156.141-.243.108-.636-.24-.2-.176-.275-.21-.244-.106.01.034.126.249.257.481a2.647,2.647,0,0,1,.375.793c0,.083-.092.168-.22.2s-.184.091-.184.223a.484.484,0,0,1-.034.18.419.419,0,0,1-.289.189.71.71,0,0,0-.23.083c-.3.158-.434.082-.985-.548-.81-.926-1.378-1.452-1.47-1.36a.883.883,0,0,0,.019.231.5.5,0,0,1-.011.332.356.356,0,0,1-.331.275c-.117,0-.132-.006-.208-.11a3.889,3.889,0,0,1-.218-.349,5.909,5.909,0,0,0-.33-.5,1.97,1.97,0,0,1-.412-1.264c.027-.72.02-.8-.092-1.079a12.451,12.451,0,0,0-1.439-2.624,5.729,5.729,0,0,0-1.02-1.076,8.187,8.187,0,0,1-1.583-1.8,2.588,2.588,0,0,0-.853-.89,8.785,8.785,0,0,0-2.055-.32c-1.916-.213-3.306-.321-4.442-.345s-1.455.027-1.672.267q-.785.87-1.9,5.072a6.706,6.706,0,0,0-.282,1.3c-.072.622-.2,2.28-.2,2.578a1.962,1.962,0,0,0,.121.49,2.881,2.881,0,0,1,.193,1.068c-.007.113-.026.5-.041.852-.033.751-.091,1.438-.168,1.955-.189,1.278-.3,2.208-.333,2.75a28.97,28.97,0,0,1-.808,3.761c-.3,1.192-.313,1.221-.459,1.383a2.043,2.043,0,0,0-.319.617c-.11.264-.348.815-.529,1.222l-.33.741.037.324a10.613,10.613,0,0,1-.014,1.847,11.568,11.568,0,0,1-.258,1.416,18.5,18.5,0,0,0-.322,2.159,38.916,38.916,0,0,0-.22,3.965,4.939,4.939,0,0,0,.014,1.173,11.72,11.72,0,0,0,.719,1.994,2.907,2.907,0,0,0,.525.576c.447.428.548.56.548.716a.741.741,0,0,1-.492.641A2.291,2.291,0,0,1,275.768,363.66Zm0,0" transform="translate(-1.161 -15.84)" fill="#fff"/>
    <path id="Path_10" data-name="Path 10" d="M369.567,468.141a4.926,4.926,0,1,0,4.919,4.926A4.928,4.928,0,0,0,369.567,468.141Zm0,.808a4.117,4.117,0,1,1-4.111,4.117A4.108,4.108,0,0,1,369.567,468.949Zm0,0" transform="translate(-89.045 -132.547)" fill="#fff"/>
    <path id="Path_11" data-name="Path 11" d="M375.271,474.259a4.515,4.515,0,1,1-4.514-4.521A4.517,4.517,0,0,1,375.271,474.259Zm0,0" transform="translate(-90.235 -133.739)" fill="#fff"/>
    <path id="Path_12" data-name="Path 12" d="M377.022,477.266a3.945,3.945,0,0,1-6.35,4.626,3.945,3.945,0,1,0,6.35-4.626Zm0,0" transform="translate(-93.543 -139.36)" fill="#fff"/>
    <g id="Group_5" data-name="Group 5" transform="translate(311.103 299.131)">
      <g id="Group_4" data-name="Group 4" transform="translate(0 0)">
        <g id="Group_3" data-name="Group 3" transform="translate(0)">
          <path id="Path_13" data-name="Path 13" d="M32.255-112.114a8.679,8.679,0,0,1,4.79,2.712,7.458,7.458,0,0,1,1.853,5.15q0,9.581-12.561,9.58H10.7V-126.8H25.75q5.193,0,7.949,1.987a6.592,6.592,0,0,1,2.759,5.693Q36.459-113.832,32.255-112.114ZM18.609-120.2v6.461h6.417q3.886,0,3.887-3.254a2.955,2.955,0,0,0-.974-2.371,4.064,4.064,0,0,0-2.732-.835Zm7.771,18.844a5.32,5.32,0,0,0,3.211-.835,2.785,2.785,0,0,0,1.128-2.375,2.736,2.736,0,0,0-1.2-2.348,5.788,5.788,0,0,0-3.409-.859h-7.5v6.417Zm0,0" transform="translate(-10.703 126.797)" fill="#fff"/>
        </g>
      </g>
    </g>
    <g id="Group_8" data-name="Group 8" transform="translate(334.598 299.084)">
      <g id="Group_7" data-name="Group 7" transform="translate(0 0)">
        <g id="Group_6" data-name="Group 6" transform="translate(0 0)">
          <path id="Path_14" data-name="Path 14" d="M26.566-94.811l-2.352-5.241H11.384L9.033-94.811H.359l14.774-32.173h5.332L35.24-94.811Zm-10.934-15.95-1.809,4.339h8l-1.805-4.339L17.8-117.044Zm0,0" transform="translate(-0.359 126.984)" fill="#fff"/>
        </g>
      </g>
    </g>
    <g id="Group_11" data-name="Group 11" transform="translate(366.723 299.131)">
      <g id="Group_10" data-name="Group 10" transform="translate(0 0)">
        <g id="Group_9" data-name="Group 9" transform="translate(0)">
          <path id="Path_15" data-name="Path 15" d="M10.7-94.672V-126.8h8.088v24.714H34.424v7.411Zm0,0" transform="translate(-10.703 126.797)" fill="#fff"/>
        </g>
      </g>
    </g>
    <g id="Group_14" data-name="Group 14" transform="translate(388.41 299.131)">
      <g id="Group_13" data-name="Group 13" transform="translate(0 0)">
        <g id="Group_12" data-name="Group 12" transform="translate(0)">
          <path id="Path_16" data-name="Path 16" d="M10.7-94.672V-126.8h8.088v24.714H34.424v7.411Zm0,0" transform="translate(-10.703 126.797)" fill="#fff"/>
        </g>
      </g>
    </g>
    <g id="Group_17" data-name="Group 17" transform="translate(407.477 299.084)">
      <g id="Group_16" data-name="Group 16" transform="translate(0 0)">
        <g id="Group_15" data-name="Group 15" transform="translate(0 0)">
          <path id="Path_17" data-name="Path 17" d="M26.566-94.811l-2.352-5.241H11.384L9.033-94.811H.359l14.774-32.173h5.332L35.24-94.811Zm-10.934-15.95-1.809,4.339h8l-1.805-4.339L17.8-117.044Zm0,0" transform="translate(-0.359 126.984)" fill="#fff"/>
        </g>
      </g>
    </g>
    <g id="Group_20" data-name="Group 20" transform="translate(439.602 299.131)">
      <g id="Group_19" data-name="Group 19" transform="translate(0 0)">
        <g id="Group_18" data-name="Group 18" transform="translate(0)">
          <path id="Path_18" data-name="Path 18" d="M23.581-126.8q6.686,0,10.186,3.052t3.5,8.876q0,12.292-14.1,12.292H18.609v7.906H10.7V-126.8Zm-.633,17.486q6.1,0,6.1-5.289a5.306,5.306,0,0,0-1.378-4.018q-1.378-1.309-4.5-1.31H18.609v10.617Zm0,0" transform="translate(-10.703 126.797)" fill="#fff"/>
        </g>
      </g>
    </g>
    <g id="Group_23" data-name="Group 23" transform="translate(464.362 299.131)">
      <g id="Group_22" data-name="Group 22" transform="translate(0 0)">
        <g id="Group_21" data-name="Group 21" transform="translate(0)">
          <path id="Path_19" data-name="Path 19" d="M12.484-94.672V-126.8h8.088v32.125Zm0,0" transform="translate(-12.484 126.797)" fill="#fff"/>
        </g>
      </g>
    </g>
    <g id="Group_26" data-name="Group 26" transform="translate(310.616 340.269)">
      <g id="Group_25" data-name="Group 25" transform="translate(0 0)">
        <g id="Group_24" data-name="Group 24" transform="translate(0 0)">
          <path id="Path_20" data-name="Path 20" d="M2.52-26.364H.156v-.855h5.7v.855H3.5v6.041H2.52Zm0,0" transform="translate(-0.156 27.219)" fill="#fff"/>
        </g>
      </g>
    </g>
    <g id="Group_29" data-name="Group 29" transform="translate(324.235 340.269)">
      <g id="Group_28" data-name="Group 28" transform="translate(0 0)">
        <g id="Group_27" data-name="Group 27" transform="translate(0 0)">
          <path id="Path_21" data-name="Path 21" d="M5.4-22.049H1.742l-.76,1.726H-.031l3.123-6.9h.974l3.131,6.9H6.164Zm-.344-.788L3.571-26.213,2.087-22.836Zm0,0" transform="translate(0.031 27.219)" fill="#fff"/>
        </g>
      </g>
    </g>
    <g id="Group_32" data-name="Group 32" transform="translate(340.371 340.269)">
      <g id="Group_31" data-name="Group 31" transform="translate(0 0)">
        <g id="Group_30" data-name="Group 30" transform="translate(0 0)">
          <path id="Path_22" data-name="Path 22" d="M8.722-23.9a1.78,1.78,0,0,1,.942.61,1.724,1.724,0,0,1,.348,1.108,1.59,1.59,0,0,1-.677,1.378,3.345,3.345,0,0,1-1.964.483H4.078v-6.9h3.1A3.043,3.043,0,0,1,9-26.744a1.53,1.53,0,0,1,.645,1.306,1.705,1.705,0,0,1-.253.938A1.619,1.619,0,0,1,8.722-23.9ZM5.064-26.423v2.209H7.083A2.042,2.042,0,0,0,8.251-24.5a.933.933,0,0,0,.412-.823.936.936,0,0,0-.412-.823,2.05,2.05,0,0,0-1.168-.281Zm2.268,5.3A2.349,2.349,0,0,0,8.591-21.4a.961.961,0,0,0,.424-.867q0-1.155-1.682-1.156H5.064v2.3Zm0,0" transform="translate(-4.078 27.219)" fill="#fff"/>
        </g>
      </g>
    </g>
    <g id="Group_35" data-name="Group 35" transform="translate(355.712 340.269)">
      <g id="Group_34" data-name="Group 34" transform="translate(0 0)">
        <g id="Group_33" data-name="Group 33" transform="translate(0 0)">
          <path id="Path_23" data-name="Path 23" d="M4.078-27.219h.986v6.037H8.8v.859H4.078Zm0,0" transform="translate(-4.078 27.219)" fill="#fff"/>
        </g>
      </g>
    </g>
    <g id="Group_38" data-name="Group 38" transform="translate(369.447 340.269)">
      <g id="Group_37" data-name="Group 37" transform="translate(0 0)">
        <g id="Group_36" data-name="Group 36" transform="translate(0 0)">
          <path id="Path_24" data-name="Path 24" d="M9.086-21.182v.859H4.078v-6.9H8.947v.855H5.064v2.118h3.46v.839H5.064v2.225Zm0,0" transform="translate(-4.078 27.219)" fill="#fff"/>
        </g>
      </g>
    </g>
    <g id="Group_41" data-name="Group 41" transform="translate(393.835 340.19)">
      <g id="Group_40" data-name="Group 40" transform="translate(0 0)">
        <g id="Group_39" data-name="Group 39" transform="translate(0 0)">
          <path id="Path_25" data-name="Path 25" d="M4.234-20.477a4.713,4.713,0,0,1-1.5-.241,3.09,3.09,0,0,1-1.136-.625l.364-.768a3.037,3.037,0,0,0,1.009.574,3.7,3.7,0,0,0,1.267.222,2.3,2.3,0,0,0,1.283-.289.9.9,0,0,0,.424-.772.763.763,0,0,0-.234-.578,1.544,1.544,0,0,0-.57-.34q-.341-.119-.962-.265a9.824,9.824,0,0,1-1.255-.372,2.1,2.1,0,0,1-.819-.578,1.54,1.54,0,0,1-.34-1.049,1.786,1.786,0,0,1,.289-1,2.009,2.009,0,0,1,.883-.709A3.609,3.609,0,0,1,4.4-27.531a4.656,4.656,0,0,1,1.2.158,3.139,3.139,0,0,1,1.013.451l-.325.788a3.579,3.579,0,0,0-.926-.416A3.392,3.392,0,0,0,4.4-26.7a2.108,2.108,0,0,0-1.255.309.934.934,0,0,0-.42.788.748.748,0,0,0,.238.574,1.626,1.626,0,0,0,.586.344,8.951,8.951,0,0,0,.95.261,10.012,10.012,0,0,1,1.251.376,2.117,2.117,0,0,1,.816.57,1.509,1.509,0,0,1,.34,1.037,1.763,1.763,0,0,1-.3.99,1.989,1.989,0,0,1-.9.709A3.689,3.689,0,0,1,4.234-20.477Zm0,0" transform="translate(-1.594 27.531)" fill="#fff"/>
        </g>
      </g>
    </g>
    <g id="Group_44" data-name="Group 44" transform="translate(407.903 340.19)">
      <g id="Group_43" data-name="Group 43" transform="translate(0 0)">
        <g id="Group_42" data-name="Group 42" transform="translate(0 0)">
          <path id="Path_26" data-name="Path 26" d="M5.537-20.477a3.852,3.852,0,0,1-1.884-.459A3.4,3.4,0,0,1,2.338-22.2,3.459,3.459,0,0,1,1.859-24a3.468,3.468,0,0,1,.479-1.805,3.374,3.374,0,0,1,1.314-1.263,3.863,3.863,0,0,1,1.884-.459,3.818,3.818,0,0,1,1.869.459,3.335,3.335,0,0,1,1.31,1.259A3.49,3.49,0,0,1,9.191-24a3.485,3.485,0,0,1-.475,1.809,3.363,3.363,0,0,1-1.31,1.259A3.807,3.807,0,0,1,5.537-20.477Zm0-.879A2.714,2.714,0,0,0,6.9-21.7a2.52,2.52,0,0,0,.954-.95A2.673,2.673,0,0,0,8.205-24a2.673,2.673,0,0,0-.348-1.354,2.52,2.52,0,0,0-.954-.95,2.7,2.7,0,0,0-1.366-.348,2.762,2.762,0,0,0-1.378.348,2.523,2.523,0,0,0-.966.95A2.663,2.663,0,0,0,2.845-24a2.663,2.663,0,0,0,.348,1.354,2.523,2.523,0,0,0,.966.95A2.78,2.78,0,0,0,5.537-21.356Zm0,0" transform="translate(-1.859 27.531)" fill="#fff"/>
        </g>
      </g>
    </g>
    <g id="Group_47" data-name="Group 47" transform="translate(424.062 340.19)">
      <g id="Group_46" data-name="Group 46" transform="translate(0 0)">
        <g id="Group_45" data-name="Group 45" transform="translate(0 0)">
          <path id="Path_27" data-name="Path 27" d="M5.505-20.477a3.8,3.8,0,0,1-1.869-.459A3.4,3.4,0,0,1,2.33-22.195,3.5,3.5,0,0,1,1.859-24a3.506,3.506,0,0,1,.471-1.809,3.352,3.352,0,0,1,1.314-1.259,3.839,3.839,0,0,1,1.872-.459,3.872,3.872,0,0,1,1.477.273,3.052,3.052,0,0,1,1.144.8l-.641.622a2.561,2.561,0,0,0-1.94-.819,2.8,2.8,0,0,0-1.39.348,2.51,2.51,0,0,0-.974.95A2.663,2.663,0,0,0,2.845-24a2.663,2.663,0,0,0,.348,1.354,2.51,2.51,0,0,0,.974.95,2.814,2.814,0,0,0,1.39.344,2.571,2.571,0,0,0,1.94-.827l.641.622a3.073,3.073,0,0,1-1.152.812A3.9,3.9,0,0,1,5.505-20.477Zm0,0" transform="translate(-1.859 27.531)" fill="#fff"/>
        </g>
      </g>
    </g>
    <g id="Group_50" data-name="Group 50" transform="translate(439.068 340.19)">
      <g id="Group_49" data-name="Group 49" transform="translate(0 0)">
        <g id="Group_48" data-name="Group 48" transform="translate(0 0)">
          <path id="Path_28" data-name="Path 28" d="M5.505-20.477a3.8,3.8,0,0,1-1.869-.459A3.4,3.4,0,0,1,2.33-22.195,3.5,3.5,0,0,1,1.859-24a3.506,3.506,0,0,1,.471-1.809,3.352,3.352,0,0,1,1.314-1.259,3.839,3.839,0,0,1,1.872-.459,3.872,3.872,0,0,1,1.477.273,3.052,3.052,0,0,1,1.144.8l-.641.622a2.561,2.561,0,0,0-1.94-.819,2.8,2.8,0,0,0-1.39.348,2.51,2.51,0,0,0-.974.95A2.663,2.663,0,0,0,2.845-24a2.663,2.663,0,0,0,.348,1.354,2.51,2.51,0,0,0,.974.95,2.814,2.814,0,0,0,1.39.344,2.571,2.571,0,0,0,1.94-.827l.641.622a3.073,3.073,0,0,1-1.152.812A3.9,3.9,0,0,1,5.505-20.477Zm0,0" transform="translate(-1.859 27.531)" fill="#fff"/>
        </g>
      </g>
    </g>
    <g id="Group_53" data-name="Group 53" transform="translate(454.636 340.269)">
      <g id="Group_52" data-name="Group 52" transform="translate(0 0)">
        <g id="Group_51" data-name="Group 51" transform="translate(0 0)">
          <path id="Path_29" data-name="Path 29" d="M9.086-21.182v.859H4.078v-6.9H8.947v.855H5.064v2.118h3.46v.839H5.064v2.225Zm0,0" transform="translate(-4.078 27.219)" fill="#fff"/>
        </g>
      </g>
    </g>
    <g id="Group_56" data-name="Group 56" transform="translate(469.119 340.269)">
      <g id="Group_55" data-name="Group 55" transform="translate(0 0)">
        <g id="Group_54" data-name="Group 54" transform="translate(0 0)">
          <path id="Path_30" data-name="Path 30" d="M8.69-20.323,7.2-22.441c-.182.014-.327.02-.432.02H5.064v2.1H4.078v-6.9H6.77a3.188,3.188,0,0,1,2.106.641,2.161,2.161,0,0,1,.772,1.762,2.307,2.307,0,0,1-.4,1.362,2.227,2.227,0,0,1-1.124.816l1.635,2.316ZM6.738-23.26a2.2,2.2,0,0,0,1.429-.4,1.4,1.4,0,0,0,.495-1.152,1.392,1.392,0,0,0-.495-1.148,2.219,2.219,0,0,0-1.429-.4H5.064v3.1Zm0,0" transform="translate(-4.078 27.219)" fill="#fff"/>
        </g>
      </g>
    </g>
  </g>
</svg>
