<?xml version="1.0" encoding="iso-8859-1"?>
<!-- Generator: Adobe Illustrator 18.1.1, SVG Export Plug-In . SVG Version: 6.00 Build 0)  -->
<svg version="1.1" id="Capa_1" xmlns="http://www.w3.org/2000/svg" xmlns:xlink="http://www.w3.org/1999/xlink" x="0px" y="0px"
	 viewBox="0 0 51.256 51.256" style="enable-background:new 0 0 51.256 51.256;" xml:space="preserve">
<g>
	<g>
		<g>
			<path style="fill:#010002;" d="M25.628,16.308c4.503,0,8.153-3.65,8.153-8.154S30.133,0,25.628,0s-8.154,3.649-8.154,8.153
				S21.123,16.308,25.628,16.308z M23.023,14.944c-0.161,0.084-0.311,0.163-0.433,0.221c-1.005-0.425-1.899-1.058-2.635-1.845
				c0.019-0.117,0.044-0.281,0.075-0.462c0.073-0.458,0.164-1.024,0.199-1.249c0.005-0.032,0.01-0.057,0.012-0.073
				c0.06,0.016,0.235,0.064,0.471,0.128c0.654,0.178,1.757,0.476,1.979,0.537c0.021,0.005,0.032,0.009,0.038,0.011
				c0.009,0.015,0.073,0.114,0.166,0.262c0.213,0.338,0.589,0.93,0.867,1.37c0.122,0.193,0.227,0.357,0.29,0.459
				c0.028,0.041,0.045,0.071,0.058,0.089C23.995,14.451,23.473,14.717,23.023,14.944z M25.62,5.536
				c0.021,0.012,0.085,0.057,0.182,0.127c0.551,0.39,2.134,1.507,2.249,1.589c-0.003,0.006-0.005,0.017-0.011,0.029
				c-0.002,0.003-0.002,0.007-0.002,0.011c-0.119,0.362-0.879,2.696-0.928,2.843c-0.012,0-0.033,0-0.063,0c-0.083,0-0.231,0-0.418,0
				c-0.815,0-2.375,0-2.5,0c-0.046-0.146-0.807-2.479-0.924-2.843c-0.003-0.004-0.003-0.008-0.005-0.011
				c-0.004-0.012-0.009-0.023-0.009-0.029c0.114-0.082,1.696-1.199,2.248-1.589C25.536,5.593,25.601,5.548,25.62,5.536z
				 M25.44,5.366V3.145l0.181,0.07l0.182-0.07v2.222l-0.182-0.13L25.44,5.366z M28.369,11.998l-0.012,0.003l-0.223,0.314
				l-1.36-1.937h0.446L28.369,11.998z M23.985,10.379h0.447l-1.359,1.917l-0.187-0.295L23.985,10.379z M25.587,14.489
				c-0.41,0-0.812-0.041-1.2-0.115l-0.273-0.431c0.471,0.117,0.966,0.181,1.473,0.181c0.539,0,1.06-0.07,1.555-0.204l-0.277,0.44
				C26.452,14.443,26.024,14.489,25.587,14.489z M28.638,15.142c-0.125-0.062-0.277-0.139-0.434-0.217
				c-0.451-0.225-0.959-0.477-1.07-0.533c0.012-0.021,0.035-0.058,0.066-0.108c0.069-0.107,0.174-0.273,0.299-0.469
				c0.397-0.634,0.979-1.553,1.013-1.603c0.062-0.017,1.208-0.328,1.933-0.523c0.26-0.072,0.465-0.127,0.545-0.148
				c0.004-0.002,0.01-0.004,0.014-0.004c0.022,0.128,0.132,0.724,0.222,1.229c0.032,0.171,0.062,0.331,0.084,0.46
				C30.572,14.04,29.662,14.698,28.638,15.142z M31.169,11.239l-0.512,0.139c0.561-0.852,0.91-1.855,0.979-2.933l0.326,0.411
				C31.857,9.714,31.581,10.521,31.169,11.239z M30.438,6.492c0.019-0.242,0.085-1.208,0.134-1.878
				c0.016-0.24,0.03-0.441,0.037-0.557c0.002-0.037,0.006-0.066,0.008-0.084c0.125,0.023,0.707,0.123,1.205,0.207
				c0.174,0.033,0.34,0.06,0.471,0.082c0.533,0.938,0.875,1.994,0.974,3.121c-0.097,0.091-0.213,0.206-0.341,0.329
				c-0.363,0.352-0.789,0.762-0.883,0.851c-0.012-0.009-0.026-0.03-0.045-0.055C31.93,8.42,31.802,8.262,31.65,8.071
				c-0.32-0.401-0.753-0.944-1.008-1.264c-0.115-0.147-0.195-0.246-0.206-0.263C30.436,6.541,30.438,6.521,30.438,6.492z
				 M28.189,7.616l0.139-0.429l1.858-0.561l0.233,0.284L28.189,7.616z M30.384,3.791l-0.036,0.523
				c-0.677-0.857-1.577-1.526-2.614-1.923l0.488-0.189C29.054,2.576,29.787,3.12,30.384,3.791z M23.765,0.944
				c0.083-0.163,0.159-0.312,0.217-0.423c0.516-0.111,1.053-0.172,1.605-0.172c0.549,0,1.086,0.061,1.604,0.17
				c0.063,0.113,0.145,0.265,0.235,0.431c0.239,0.432,0.526,0.952,0.594,1.072c-0.022,0.008-0.065,0.024-0.118,0.046
				c-0.119,0.047-0.306,0.118-0.521,0.202c-0.532,0.209-1.245,0.486-1.578,0.614c-0.102,0.039-0.169,0.066-0.183,0.072
				c-0.011-0.006-0.078-0.033-0.18-0.072c-0.339-0.132-1.072-0.417-1.609-0.626c-0.224-0.088-0.413-0.159-0.525-0.206
				c-0.04-0.013-0.072-0.026-0.089-0.033C23.278,1.901,23.544,1.378,23.765,0.944z M22.981,2.188l0.492,0.192
				c-1.019,0.38-1.909,1.025-2.585,1.854l-0.036-0.515C21.445,3.072,22.17,2.55,22.981,2.188z M21.05,6.607l1.865,0.58l0.14,0.429
				L20.844,6.89L21.05,6.607z M19.18,8.547c-0.128-0.124-0.572-0.552-0.928-0.897c-0.132-0.129-0.253-0.244-0.341-0.329
				c0.106-1.1,0.443-2.129,0.962-3.044c0.124-0.021,0.291-0.051,0.47-0.082c0.514-0.09,1.149-0.197,1.284-0.222v0.002
				c0.004,0.069,0.019,0.278,0.039,0.552c0.047,0.668,0.12,1.713,0.137,1.965c0.002,0.029,0.003,0.049,0.003,0.054
				c-0.01,0.017-0.09,0.115-0.208,0.263c-0.272,0.34-0.749,0.941-1.071,1.346c-0.163,0.204-0.288,0.363-0.328,0.408
				C19.195,8.562,19.186,8.552,19.18,8.547z M19.224,8.926l0.319-0.402c0.079,1.04,0.418,2.004,0.957,2.832l-0.482-0.103
				c-0.419-0.716-0.684-1.477-0.799-2.333L19.224,8.926z"/>
			<path style="fill:#010002;" d="M25.303,17.566c-4.411,0-7.427-5.042-7.427-5.042s3.781,8.56,3.781,15.505s0.042,0,0.042,0v13.669
				h7.86V28.029c0,0,0.041,4.714,0.041,0c0-4.712,3.781-15.505,3.781-15.505S29.714,17.566,25.303,17.566z"/>
			<path style="fill:#010002;" d="M20.743,42.118v6.723h9.769v-6.723H20.743z M28.676,47.316h-6.197V43.64h6.197V47.316z"/>
			<rect x="19.547" y="49.261" style="fill:#010002;" width="12.161" height="1.995"/>
		</g>
	</g>
</g>
<g>
</g>
<g>
</g>
<g>
</g>
<g>
</g>
<g>
</g>
<g>
</g>
<g>
</g>
<g>
</g>
<g>
</g>
<g>
</g>
<g>
</g>
<g>
</g>
<g>
</g>
<g>
</g>
<g>
</g>
</svg>
