<svg xmlns="http://www.w3.org/2000/svg" width="299" height="989.05" viewBox="0 0 299 989.05">
  <path id="stripes" d="M650.285,217.24,740.164,138.6c-68.645,11.149-117.8,13.092-190.131,13.092A1262.106,1262.106,0,0,1,312.2,129.567L368.24,80.494C242.1,76.608,111.5,57.182,0,18.582v87.166c76.6,33.532,161.529,62.418,246.269,81.423l-53.52,46.877c125.946,35.306,275.937,52.114,415.263,52.114L593.372,299H989.05V142.743c-106.846,37.671-226.2,64.192-338.765,74.5ZM301.534,0A1759.446,1759.446,0,0,0,538.107,15.964l-76.5,66.979c24.724,1.182,29.959.591,55.071.591,165.8,0,326.064-27.028,472.274-76.27V0Z" transform="translate(299) rotate(90)" fill="#4e0351" fill-rule="evenodd" opacity="0.42"/>
</svg>
